<?xml version="1.0" standalone="no"?>
<!DOCTYPE svg PUBLIC "-//W3C//DTD SVG 20010904//EN"
 "http://www.w3.org/TR/2001/REC-SVG-20010904/DTD/svg10.dtd">
<svg version="1.0" xmlns="http://www.w3.org/2000/svg"
 width="225.000000pt" height="225.000000pt" viewBox="0 0 225.000000 225.000000"
 preserveAspectRatio="xMidYMid meet">
<metadata>
Created by potrace 1.10, written by Peter Selinger 2001-2011
</metadata>
<g transform="translate(0.000000,225.000000) scale(0.100000,-0.100000)"
fill="#000000" stroke="none">
<path d="M650 2160 c-9 -6 -10 -10 -3 -10 6 0 15 5 18 10 8 12 4 12 -15 0z"/>
<path d="M705 2160 c-13 -6 -15 -9 -5 -9 8 0 22 4 30 9 18 12 2 12 -25 0z"/>
<path d="M975 2160 c-3 -5 -1 -10 4 -10 6 0 11 5 11 10 0 6 -2 10 -4 10 -3 0
-8 -4 -11 -10z"/>
<path d="M1010 2166 c0 -2 7 -7 16 -10 8 -3 12 -2 9 4 -6 10 -25 14 -25 6z"/>
<path d="M1063 2153 c20 -5 23 -19 5 -26 -7 -2 2 -4 20 -3 l33 1 -22 18 c-12
9 -29 16 -38 16 -14 -1 -13 -2 2 -6z"/>
<path d="M1455 2141 c-3 -6 4 -8 16 -6 30 6 37 15 11 15 -11 0 -23 -4 -27 -9z"/>
<path d="M733 2121 c-29 -11 -67 -27 -84 -35 -118 -59 -247 -218 -310 -383
-20 -54 -29 -65 -67 -85 -50 -25 -149 -128 -173 -178 -116 -243 -128 -290 -24
-90 41 80 89 163 106 183 27 33 105 84 114 75 2 -2 -1 -23 -5 -48 -5 -25 -9
-61 -8 -80 0 -34 1 -33 10 10 61 301 187 486 405 595 89 45 152 52 253 31 160
-33 266 -112 316 -235 33 -80 31 -85 -24 -52 -163 96 -364 106 -524 25 -27
-14 -54 -22 -61 -18 -7 4 -9 4 -5 -1 10 -10 -11 -37 -23 -29 -5 3 -9 -2 -9
-10 0 -16 16 -21 60 -17 31 3 46 16 29 26 -8 6 -10 4 -4 -5 6 -10 4 -12 -7 -7
-9 3 -21 0 -27 -6 -8 -8 -14 -8 -22 0 -8 8 -3 16 20 28 17 9 36 13 42 10 5 -4
8 -1 7 5 -8 30 203 77 289 64 104 -15 282 -96 275 -125 -2 -8 0 -11 4 -6 8 7
64 -40 64 -54 0 -4 -17 -3 -37 3 -62 18 -219 14 -298 -6 -38 -10 -116 -40
-173 -67 -95 -46 -133 -54 -116 -27 4 7 2 8 -5 4 -9 -6 -9 -11 -1 -21 15 -18
-33 -29 -63 -15 -21 11 -21 11 -3 -4 14 -12 16 -16 5 -16 -12 0 -12 -2 1 -10
8 -5 17 -6 20 -1 3 4 20 13 38 21 25 10 36 10 45 1 6 -6 15 -11 21 -11 5 0 2
6 -8 13 -16 12 -9 17 61 50 43 20 105 46 138 58 122 43 343 34 431 -17 59 -34
67 -58 11 -34 -73 32 -203 53 -276 45 -36 -4 -76 -8 -88 -9 -11 0 -19 -4 -16
-8 2 -5 -1 -8 -7 -8 -6 0 -73 -29 -149 -65 -117 -55 -145 -65 -192 -65 -57 0
-99 -19 -99 -45 0 -19 25 -31 80 -40 25 -4 68 -22 95 -40 139 -90 208 -109
379 -102 132 5 219 22 289 56 l38 19 -3 -31 c-2 -24 -11 -35 -32 -46 -62 -29
-136 -42 -276 -48 -168 -7 -222 3 -355 66 l-82 38 2 -25 c1 -27 19 -40 30 -23
3 6 0 9 -8 5 -8 -3 -14 2 -14 11 0 20 2 20 61 -13 28 -16 83 -40 121 -53 61
-21 86 -24 195 -22 69 1 160 8 203 15 42 8 74 11 70 7 -24 -22 -300 -152 -333
-156 -22 -3 -40 -10 -40 -15 0 -26 132 25 306 118 116 62 163 96 182 130 7 12
17 14 46 8 21 -3 33 -10 27 -13 -6 -4 16 -5 50 -3 49 4 60 2 54 -8 -5 -8 -4
-11 2 -7 6 4 73 9 149 11 129 4 290 30 326 52 9 5 8 0 -4 -16 -9 -14 -23 -24
-32 -24 -9 1 -13 -2 -10 -7 3 -5 -2 -9 -10 -9 -9 0 -22 -13 -30 -29 -23 -44
-69 -77 -154 -110 -68 -26 -94 -30 -178 -31 -75 -1 -112 3 -155 18 -42 15 -56
17 -56 7 0 -7 6 -11 12 -9 18 7 115 -38 154 -72 23 -19 36 -24 39 -16 2 6 8
12 13 12 6 0 8 -4 5 -8 -2 -4 10 -8 27 -9 19 -1 24 1 12 4 -11 3 -25 9 -31 14
-6 5 -20 6 -29 2 -15 -5 -17 -3 -12 11 4 9 3 15 -2 11 -11 -6 -41 4 -41 14 0
4 19 5 41 3 23 -3 76 1 118 8 l76 12 48 -53 c66 -74 97 -128 106 -189 l8 -52
-51 -24 c-105 -48 -218 -68 -386 -68 -179 0 -281 12 -510 61 -166 35 -344 52
-413 39 -19 -4 -51 -17 -70 -30 -20 -14 -39 -21 -43 -18 -4 4 -4 1 0 -5 4 -7
0 -23 -8 -35 -25 -36 -21 -104 9 -133 23 -24 29 -25 153 -25 91 0 157 -6 226
-20 157 -33 287 -49 501 -60 110 -7 233 -15 274 -18 l75 -7 -75 -51 c-88 -61
-132 -84 -217 -113 -89 -30 -97 -31 -372 -37 -451 -11 -737 31 -1006 147 -71
31 -97 48 -122 81 -18 23 -32 36 -32 29 0 -7 12 -27 26 -45 25 -29 25 -31 8
-34 -33 -6 -40 -22 -10 -22 17 0 45 -14 74 -39 95 -78 296 -149 563 -197 121
-22 554 -26 640 -6 65 15 123 43 161 79 26 25 33 25 83 8 14 -4 13 -2 -4 8
l-24 14 29 7 c59 14 211 97 256 139 49 46 49 46 180 59 9 1 15 4 13 6 -2 2 5
21 16 40 13 25 17 47 13 69 -5 28 -2 33 24 47 38 20 82 72 82 97 0 28 -18 59
-34 59 -8 0 -15 18 -19 50 -8 70 -28 105 -103 184 l-66 70 42 16 c52 20 108
64 123 97 6 13 28 33 48 44 21 10 41 29 45 41 4 13 18 38 32 56 22 29 24 38
15 63 -6 16 -9 37 -6 48 3 13 -3 25 -21 36 -16 11 -26 27 -26 41 0 17 -12 33
-39 52 -22 15 -42 34 -44 44 -6 20 -74 64 -147 94 -51 20 -55 25 -66 68 -36
141 -144 235 -279 244 -96 6 -268 -37 -339 -84 -16 -11 -25 -7 -67 23 -125 90
-328 128 -446 84z m951 -61 c84 -40 152 -129 163 -211 l6 -39 -49 8 c-73 11
-413 7 -459 -6 -33 -9 -26 -10 45 -4 245 20 476 0 574 -50 44 -22 109 -69 103
-74 -1 -2 -39 3 -82 11 -44 8 -112 14 -151 15 -75 0 -225 -22 -265 -40 l-24
-11 25 6 c223 48 479 31 551 -36 18 -16 30 -31 28 -34 -3 -2 -27 7 -54 20 -72
36 -154 48 -271 41 -88 -5 -237 -28 -326 -51 -21 -5 -28 -4 -28 8 0 8 -9 26
-20 39 -10 14 -17 28 -14 31 3 3 0 8 -7 13 -8 5 -10 3 -4 -6 6 -9 1 -10 -16
-5 -34 10 -108 95 -109 125 0 41 -19 95 -45 135 -14 20 -23 40 -20 45 9 14
154 71 219 86 77 17 176 11 230 -16z m-369 -412 c65 -14 123 -41 167 -75 43
-35 41 -58 -4 -36 -25 13 -52 14 -146 9 -114 -7 -165 -17 -377 -76 -97 -27
-122 -31 -210 -27 -55 2 -111 9 -124 16 -21 12 -22 14 -7 29 10 11 37 17 74
19 81 3 111 7 106 14 -2 3 36 24 84 47 216 101 283 114 437 80z m650 -8 c78
-11 178 -55 215 -95 19 -21 21 -25 7 -25 -9 0 -17 4 -17 8 0 5 -6 9 -12 10 -7
0 -42 5 -78 11 -127 20 -320 5 -489 -38 l-73 -20 5 27 c4 18 -1 34 -14 48
l-20 21 63 16 c88 21 209 39 318 45 14 1 57 -3 95 -8z m143 -112 c84 -16 114
-62 76 -117 -17 -23 -70 -51 -98 -51 -9 0 -18 12 -22 28 -12 51 -52 109 -88
126 -43 20 -118 21 -156 1 -44 -23 -79 -76 -92 -139 -9 -42 -16 -55 -28 -52
-8 2 -59 10 -112 17 -68 9 -98 17 -98 26 0 7 -4 13 -9 13 -4 0 2 22 15 49 l24
49 92 23 c188 46 351 55 496 27z m-618 -18 c20 -38 -14 -121 -60 -145 -41 -21
-45 -20 -65 26 -11 22 -35 54 -54 70 -32 26 -43 29 -104 29 -37 0 -83 -6 -101
-14 -45 -19 -78 -68 -84 -127 l-4 -48 -87 31 c-87 30 -164 69 -177 89 -4 8 3
9 24 4 39 -8 133 9 247 46 124 39 231 57 352 58 92 1 103 -1 113 -19z m430
-15 c-7 -9 -15 -13 -19 -10 -3 3 1 10 9 15 21 14 24 12 10 -5z m45 -5 c4 -6
-1 -7 -12 -3 -15 6 -16 4 -5 -9 9 -11 10 -18 2 -23 -5 -3 -10 0 -11 7 0 10 -2
10 -6 1 -2 -7 -9 -13 -14 -13 -5 0 -2 11 7 25 17 27 29 31 39 15z m-80 -10
c12 -20 -6 -50 -29 -50 -33 0 -53 25 -36 45 14 17 56 20 65 5z m-717 -22 c7
-7 8 -17 1 -30 -12 -22 -32 -23 -49 -3 -23 28 21 60 48 33z m77 -8 c9 7 22 9
32 5 10 -5 22 -7 26 -6 5 1 6 -3 3 -8 -4 -5 -2 -12 4 -16 5 -3 10 -11 10 -17
0 -6 -11 1 -24 17 -18 21 -29 26 -43 20 -21 -10 -56 -15 -48 -7 2 3 -1 12 -7
21 -8 10 -4 9 9 -3 19 -15 25 -16 38 -6z m755 1 c-6 -12 -6 -22 -1 -25 5 -4
11 -1 13 6 3 7 7 5 11 -6 4 -10 3 -15 -3 -11 -6 3 -10 2 -10 -3 0 -6 7 -12 15
-16 18 -7 10 -32 -13 -39 -9 -3 -26 -8 -37 -12 -15 -6 -14 -3 5 11 14 10 28
18 32 17 4 -2 5 4 2 12 -4 8 -10 12 -15 9 -5 -3 -6 1 -3 9 3 8 1 18 -5 21 -6
4 -7 14 -4 23 5 12 3 14 -7 8 -9 -5 -11 -4 -6 3 4 7 14 12 22 12 11 0 12 -4 4
-19z m-178 -35 c7 5 8 2 3 -5 -5 -9 -10 -10 -18 -2 -6 6 -17 11 -25 11 -10 0
-10 -3 2 -16 20 -20 20 -25 0 -17 -14 5 -15 3 -4 -18 7 -13 18 -27 24 -31 8
-5 7 -8 -2 -8 -7 0 -17 11 -24 25 -6 13 -15 22 -21 18 -6 -4 -7 -1 -1 8 5 8 9
19 9 24 1 6 5 18 9 28 8 17 9 17 23 -3 8 -11 19 -17 25 -14z m153 -16 c0 -30
-35 -40 -54 -16 -20 24 -6 48 26 44 22 -2 28 -8 28 -28z m-865 9 c0 -5 -4 -8
-9 -4 -6 3 -15 -4 -21 -16 -7 -12 -8 -19 -3 -16 17 11 31 -8 26 -36 -4 -21
-11 -27 -30 -27 -23 0 -25 3 -20 40 3 24 12 47 23 55 23 17 34 19 34 4z m80
-4 c-6 -8 -8 -20 -4 -27 5 -10 4 -10 -6 -1 -11 10 -11 15 0 28 7 8 15 15 17
15 3 0 0 -7 -7 -15z m94 -1 c19 -18 19 -20 6 -45 -6 -11 -21 -19 -35 -19 -20
0 -45 24 -45 44 0 10 32 36 45 36 7 0 21 -7 29 -16z m610 -23 c-2 -3 -12 3
-22 13 -16 17 -16 18 5 5 12 -7 20 -15 17 -18z m-764 -9 c-5 -2 -17 2 -27 8
-17 11 -17 11 0 6 10 -3 17 0 17 7 0 7 4 6 10 -3 6 -9 6 -16 0 -18z m224 -4
c16 -11 -6 -10 -23 1 -8 5 -10 14 -5 22 6 10 9 10 12 -1 3 -8 10 -18 16 -22z
m504 5 c5 -17 -26 -29 -40 -15 -6 6 -7 15 -3 22 9 14 37 9 43 -7z m61 -35
c-23 -9 -39 -3 -39 14 0 6 7 5 17 -3 15 -12 16 -12 10 3 -5 15 -4 16 13 6 19
-12 19 -13 -1 -20z m-749 12 c13 -8 13 -11 -2 -26 -14 -14 -20 -15 -33 -4 -12
10 -13 16 -4 26 13 16 19 17 39 4z m182 2 c15 -6 14 -8 -5 -18 -19 -8 -23 -7
-23 8 0 19 2 20 28 10z m-139 -27 c-3 -9 -8 -14 -10 -11 -3 3 -2 9 2 15 9 16
15 13 8 -4z m554 9 c-3 -3 -12 -4 -19 -1 -8 3 -5 6 6 6 11 1 17 -2 13 -5z
m-652 -532 c242 -49 365 -64 510 -65 132 0 281 28 387 73 l73 30 18 -21 c22
-28 22 -32 -8 -67 -60 -72 -187 -96 -505 -96 -226 0 -356 13 -565 55 -174 35
-293 47 -321 31 -15 -9 -1 -11 67 -12 51 0 135 -10 205 -24 214 -44 326 -57
534 -63 185 -5 354 3 466 23 27 5 32 2 38 -20 9 -38 -12 -73 -59 -96 -36 -17
-61 -20 -196 -20 -159 0 -466 21 -599 40 -41 6 -113 20 -160 32 -61 15 -128
22 -238 26 -141 4 -153 6 -167 25 -29 41 -13 97 43 150 16 15 42 32 58 37 55
18 214 3 419 -38z m-1000 -351 c3 -5 40 -23 83 -39 250 -97 681 -147 1062
-123 89 6 165 13 171 16 5 4 9 2 9 -2 0 -16 -90 -53 -162 -68 -83 -18 -405
-20 -543 -5 -177 21 -400 78 -512 132 -63 31 -148 97 -126 98 6 0 14 -4 18 -9z"/>
<path d="M1498 2053 c7 -3 16 -2 19 1 4 3 -2 6 -13 5 -11 0 -14 -3 -6 -6z"/>
<path d="M1683 2027 c0 -7 9 -13 19 -13 10 0 18 1 18 3 0 1 -8 7 -18 12 -13 7
-19 6 -19 -2z"/>
<path d="M1356 2018 c3 -4 11 -5 19 -1 21 7 19 12 -4 10 -11 0 -18 -5 -15 -9z"/>
<path d="M1518 2018 c5 -5 16 -8 23 -6 8 3 3 7 -10 11 -17 4 -21 3 -13 -5z"/>
<path d="M1610 2026 c0 -2 7 -7 16 -10 8 -3 12 -2 9 4 -6 10 -25 14 -25 6z"/>
<path d="M1478 2013 c7 -3 16 -2 19 1 4 3 -2 6 -13 5 -11 0 -14 -3 -6 -6z"/>
<path d="M1760 1972 c0 -6 4 -13 10 -17 5 -3 7 -12 3 -20 -3 -8 0 -15 5 -15
20 0 20 15 1 39 -10 13 -19 18 -19 13z"/>
<path d="M1330 1907 c0 -9 -4 -17 -10 -17 -5 0 -10 -4 -10 -10 0 -5 4 -10 9
-10 12 0 25 39 17 47 -3 4 -6 -1 -6 -10z"/>
<path d="M1760 1871 c0 -10 19 -25 25 -20 1 2 -3 10 -11 17 -8 7 -14 8 -14 3z"/>
<path d="M1355 1779 c-4 -6 -5 -12 -2 -15 2 -3 7 2 10 11 7 17 1 20 -8 4z"/>
<path d="M1750 1780 c-8 -5 -10 -10 -5 -10 6 0 17 5 25 10 8 5 11 10 5 10 -5
0 -17 -5 -25 -10z"/>
<path d="M1590 1770 c8 -5 20 -10 25 -10 6 0 3 5 -5 10 -8 5 -19 10 -25 10 -5
0 -3 -5 5 -10z"/>
<path d="M1670 1770 c8 -5 20 -10 25 -10 6 0 3 5 -5 10 -8 5 -19 10 -25 10 -5
0 -3 -5 5 -10z"/>
<path d="M1386 1725 c4 -8 8 -15 10 -15 2 0 4 7 4 15 0 8 -4 15 -10 15 -5 0
-7 -7 -4 -15z"/>
<path d="M1630 1736 c0 -2 7 -7 16 -10 8 -3 12 -2 9 4 -6 10 -25 14 -25 6z"/>
<path d="M1848 1733 c7 -3 16 -2 19 1 4 3 -2 6 -13 5 -11 0 -14 -3 -6 -6z"/>
<path d="M1958 1733 c6 -2 10 -9 7 -14 -4 -5 1 -6 10 -2 13 5 14 7 3 14 -7 5
-17 8 -23 8 -5 0 -4 -3 3 -6z"/>
<path d="M1693 1723 c9 -2 23 -2 30 0 6 3 -1 5 -18 5 -16 0 -22 -2 -12 -5z"/>
<path d="M1455 1678 c-5 -7 -4 -10 0 -5 5 4 15 -5 22 -20 12 -26 12 -26 7 -3
-8 33 -20 45 -29 28z"/>
<path d="M1520 1641 c0 -5 9 -7 20 -4 11 3 20 7 20 9 0 2 -9 4 -20 4 -11 0
-20 -4 -20 -9z"/>
<path d="M1090 1630 c-13 -8 -13 -10 2 -10 9 0 20 5 23 10 8 13 -5 13 -25 0z"/>
<path d="M1288 1623 c7 -3 16 -2 19 1 4 3 -2 6 -13 5 -11 0 -14 -3 -6 -6z"/>
<path d="M1190 1610 c8 -5 20 -10 25 -10 6 0 3 5 -5 10 -8 5 -19 10 -25 10 -5
0 -3 -5 5 -10z"/>
<path d="M1350 1600 c-8 -5 -10 -10 -5 -10 6 0 17 5 25 10 8 5 11 10 5 10 -5
0 -17 -5 -25 -10z"/>
<path d="M1238 1593 c7 -3 16 -2 19 1 4 3 -2 6 -13 5 -11 0 -14 -3 -6 -6z"/>
<path d="M944 1575 c3 -21 16 -31 16 -12 0 9 -4 18 -9 21 -5 4 -8 -1 -7 -9z"/>
<path d="M1340 1576 c0 -2 7 -7 16 -10 8 -3 12 -2 9 4 -6 10 -25 14 -25 6z"/>
<path d="M1238 1563 c7 -3 16 -2 19 1 4 3 -2 6 -13 5 -11 0 -14 -3 -6 -6z"/>
<path d="M908 1553 c7 -3 16 -2 19 1 4 3 -2 6 -13 5 -11 0 -14 -3 -6 -6z"/>
<path d="M856 1542 c-2 -4 4 -8 14 -8 10 0 16 4 14 8 -3 4 -9 8 -14 8 -5 0
-11 -4 -14 -8z"/>
<path d="M908 1523 c6 -2 18 -2 25 0 6 3 1 5 -13 5 -14 0 -19 -2 -12 -5z"/>
<path d="M965 1510 c3 -5 11 -10 16 -10 6 0 7 5 4 10 -3 6 -11 10 -16 10 -6 0
-7 -4 -4 -10z"/>
<path d="M1798 1593 c7 -3 16 -2 19 1 4 3 -2 6 -13 5 -11 0 -14 -3 -6 -6z"/>
<path d="M1878 1583 c7 -3 16 -2 19 1 4 3 -2 6 -13 5 -11 0 -14 -3 -6 -6z"/>
<path d="M1916 1581 c-4 -5 3 -7 14 -4 23 6 26 13 6 13 -8 0 -17 -4 -20 -9z"/>
<path d="M2070 1585 c0 -2 6 -8 13 -14 10 -8 14 -7 14 2 0 8 -6 14 -14 14 -7
0 -13 -1 -13 -2z"/>
<path d="M1543 1573 c9 -2 23 -2 30 0 6 3 -1 5 -18 5 -16 0 -22 -2 -12 -5z"/>
<path d="M1720 1566 c0 -8 51 -13 56 -5 3 5 -9 9 -25 9 -17 0 -31 -2 -31 -4z"/>
<path d="M1570 1530 c0 -5 4 -10 9 -10 6 0 13 5 16 10 3 6 -1 10 -9 10 -9 0
-16 -4 -16 -10z"/>
<path d="M2067 1486 c-4 -10 -1 -13 8 -9 8 3 12 9 9 14 -7 12 -11 11 -17 -5z"/>
<path d="M1727 1483 c-4 -3 -7 -11 -7 -17 0 -6 5 -5 12 2 6 6 9 14 7 17 -3 3
-9 2 -12 -2z"/>
<path d="M2118 1463 c7 -3 16 -2 19 1 4 3 -2 6 -13 5 -11 0 -14 -3 -6 -6z"/>
<path d="M1400 1439 c0 -5 5 -7 10 -4 6 3 10 8 10 11 0 2 -4 4 -10 4 -5 0 -10
-5 -10 -11z"/>
<path d="M921 1377 c2 -1 13 -9 24 -17 19 -14 19 -14 6 3 -7 9 -18 17 -24 17
-6 0 -8 -1 -6 -3z"/>
<path d="M758 823 c7 -3 16 -2 19 1 4 3 -2 6 -13 5 -11 0 -14 -3 -6 -6z"/>
<path d="M808 803 c7 -3 16 -2 19 1 4 3 -2 6 -13 5 -11 0 -14 -3 -6 -6z"/>
<path d="M865 800 c-16 -7 -17 -9 -3 -9 9 -1 20 4 23 9 7 11 7 11 -20 0z"/>
<path d="M790 780 c-9 -6 -10 -10 -3 -10 6 0 15 5 18 10 8 12 4 12 -15 0z"/>
<path d="M1068 773 c7 -3 16 -2 19 1 4 3 -2 6 -13 5 -11 0 -14 -3 -6 -6z"/>
<path d="M621 741 l-23 -18 23 2 c14 1 25 9 27 18 4 21 3 21 -27 -2z"/>
<path d="M1108 753 c6 -2 18 -2 25 0 6 3 1 5 -13 5 -14 0 -19 -2 -12 -5z"/>
<path d="M1183 737 c13 -11 14 -16 6 -19 -9 -3 -8 -6 3 -10 23 -9 16 22 -8 34
-18 9 -18 9 -1 -5z"/>
<path d="M1418 713 c7 -3 16 -2 19 1 4 3 -2 6 -13 5 -11 0 -14 -3 -6 -6z"/>
<path d="M1350 700 c0 -5 5 -10 11 -10 5 0 7 5 4 10 -3 6 -8 10 -11 10 -2 0
-4 -4 -4 -10z"/>
<path d="M1618 703 c12 -2 30 -2 40 0 9 3 -1 5 -23 4 -22 0 -30 -2 -17 -4z"/>
<path d="M1750 700 c-8 -5 -10 -10 -5 -10 6 0 17 5 25 10 8 5 11 10 5 10 -5 0
-17 -5 -25 -10z"/>
<path d="M1905 700 c-16 -7 -17 -9 -3 -9 9 -1 20 4 23 9 7 11 7 11 -20 0z"/>
<path d="M1810 696 c0 -2 9 -6 20 -9 11 -3 18 -1 14 4 -5 9 -34 13 -34 5z"/>
<path d="M870 680 c-8 -5 -10 -10 -5 -10 6 0 17 5 25 10 8 5 11 10 5 10 -5 0
-17 -5 -25 -10z"/>
<path d="M1488 683 c6 -2 18 -2 25 0 6 3 1 5 -13 5 -14 0 -19 -2 -12 -5z"/>
<path d="M1003 663 c9 -2 23 -2 30 0 6 3 -1 5 -18 5 -16 0 -22 -2 -12 -5z"/>
<path d="M923 643 c9 -2 23 -2 30 0 6 3 -1 5 -18 5 -16 0 -22 -2 -12 -5z"/>
<path d="M1028 643 c6 -2 18 -2 25 0 6 3 1 5 -13 5 -14 0 -19 -2 -12 -5z"/>
<path d="M2001 624 c0 -11 3 -14 6 -6 3 7 2 16 -1 19 -3 4 -6 -2 -5 -13z"/>
<path d="M1008 623 c6 -2 18 -2 25 0 6 3 1 5 -13 5 -14 0 -19 -2 -12 -5z"/>
<path d="M1110 620 c-9 -6 -10 -10 -3 -10 6 0 15 5 18 10 8 12 4 12 -15 0z"/>
<path d="M1768 613 c7 -3 16 -2 19 1 4 3 -2 6 -13 5 -11 0 -14 -3 -6 -6z"/>
<path d="M1403 583 c9 -2 23 -2 30 0 6 3 -1 5 -18 5 -16 0 -22 -2 -12 -5z"/>
<path d="M1795 570 c-16 -7 -14 -8 12 -7 17 1 29 5 26 10 -5 9 -12 8 -38 -3z"/>
<path d="M1723 563 c9 -2 25 -2 35 0 9 3 1 5 -18 5 -19 0 -27 -2 -17 -5z"/>
<path d="M550 290 c-9 -6 -10 -10 -3 -10 6 0 15 5 18 10 8 12 4 12 -15 0z"/>
<path d="M598 283 c7 -3 16 -2 19 1 4 3 -2 6 -13 5 -11 0 -14 -3 -6 -6z"/>
<path d="M1521 2136 c2 -2 31 -6 64 -9 37 -3 51 -2 35 3 -25 8 -107 13 -99 6z"/>
<path d="M858 2093 c7 -3 16 -2 19 1 4 3 -2 6 -13 5 -11 0 -14 -3 -6 -6z"/>
<path d="M498 2069 c-23 -25 -10 -24 22 1 16 13 20 19 10 19 -8 0 -23 -9 -32
-20z"/>
<path d="M558 2083 c6 -2 9 -10 6 -15 -4 -7 -2 -8 5 -4 13 9 5 26 -12 25 -9 0
-8 -2 1 -6z"/>
<path d="M1175 2080 c-3 -6 1 -10 9 -10 8 0 19 -7 24 -16 6 -10 12 -12 16 -6
3 5 -5 17 -19 26 -15 10 -26 12 -30 6z"/>
<path d="M1746 2081 c-3 -4 6 -6 20 -3 16 3 29 -1 35 -9 4 -7 11 -10 14 -7 4
4 4 11 0 17 -7 13 -62 15 -69 2z"/>
<path d="M1253 2073 c-7 -2 -13 -12 -13 -21 1 -15 2 -15 11 1 5 9 15 17 20 17
6 0 7 -4 4 -10 -9 -15 1 -12 15 5 10 12 9 15 -6 14 -11 0 -25 -3 -31 -6z"/>
<path d="M1063 2064 c4 -4 1 -14 -6 -23 -11 -14 -10 -15 8 -1 11 8 21 15 23
16 2 1 -5 5 -15 8 -9 4 -14 4 -10 0z"/>
<path d="M519 2033 c-13 -16 -12 -17 4 -4 9 7 17 15 17 17 0 8 -8 3 -21 -13z"/>
<path d="M670 2030 c-13 -8 -13 -10 2 -10 9 0 20 5 23 10 8 13 -5 13 -25 0z"/>
<path d="M1085 2030 c-4 -6 1 -7 11 -3 13 5 15 3 9 -7 -5 -9 -4 -11 4 -6 6 4
9 12 6 17 -8 12 -22 12 -30 -1z"/>
<path d="M1156 1996 c3 -8 18 -22 32 -32 27 -17 27 -17 -2 15 -33 35 -38 37
-30 17z"/>
<path d="M581 1984 c-20 -23 -9 -25 19 -4 16 13 20 20 10 19 -8 0 -21 -7 -29
-15z"/>
<path d="M425 1980 c-3 -5 -1 -10 4 -10 6 0 11 5 11 10 0 6 -2 10 -4 10 -3 0
-8 -4 -11 -10z"/>
<path d="M610 1960 c0 -5 5 -10 10 -10 6 0 10 5 10 10 0 6 -4 10 -10 10 -5 0
-10 -4 -10 -10z"/>
<path d="M1120 1960 c0 -5 8 -6 17 -3 12 5 15 2 10 -9 -7 -20 22 -33 37 -18 8
8 6 9 -6 5 -14 -6 -18 -2 -18 14 0 14 -6 21 -20 21 -11 0 -20 -4 -20 -10z"/>
<path d="M532 1952 c-8 -6 -2 -9 18 -9 20 0 26 3 18 9 -7 4 -15 8 -18 8 -3 0
-11 -4 -18 -8z"/>
<path d="M404 1908 c0 -10 1 -18 3 -18 1 0 7 8 12 18 7 13 6 19 -2 19 -7 0
-13 -9 -13 -19z"/>
<path d="M1890 1910 c0 -11 2 -20 4 -20 2 0 6 9 9 20 3 11 1 20 -4 20 -5 0 -9
-9 -9 -20z"/>
<path d="M1195 1895 c0 -13 3 -21 8 -18 4 2 7 10 7 18 0 8 -3 16 -7 18 -5 3
-8 -5 -8 -18z"/>
<path d="M725 1880 c-3 -6 1 -7 9 -4 18 7 21 14 7 14 -6 0 -13 -4 -16 -10z"/>
<path d="M988 1873 c7 -3 16 -2 19 1 4 3 -2 6 -13 5 -11 0 -14 -3 -6 -6z"/>
<path d="M877 1859 c7 -7 15 -10 18 -7 3 3 -2 9 -12 12 -14 6 -15 5 -6 -5z"/>
<path d="M457 1854 c-3 -5 1 -15 9 -22 16 -14 18 -5 5 17 -5 7 -11 9 -14 5z"/>
<path d="M1960 1839 c13 -6 28 -15 32 -22 6 -9 8 -9 8 0 0 14 -32 33 -52 32
-7 0 -2 -5 12 -10z"/>
<path d="M420 1809 c0 -5 5 -7 10 -4 6 3 10 8 10 11 0 2 -4 4 -10 4 -5 0 -10
-5 -10 -11z"/>
<path d="M1158 1813 c7 -3 16 -2 19 1 4 3 -2 6 -13 5 -11 0 -14 -3 -6 -6z"/>
<path d="M460 1801 c0 -6 4 -13 10 -16 6 -3 7 1 4 9 -7 18 -14 21 -14 7z"/>
<path d="M322 1771 c0 -17 1 -31 3 -31 7 0 12 39 5 49 -4 7 -7 -1 -8 -18z"/>
<path d="M1190 1791 c0 -9 30 -24 36 -18 2 1 -6 8 -16 15 -11 7 -20 8 -20 3z"/>
<path d="M1190 1760 c8 -5 20 -10 25 -10 6 0 3 5 -5 10 -8 5 -19 10 -25 10 -5
0 -3 -5 5 -10z"/>
<path d="M2045 1761 c-4 -7 0 -8 11 -4 11 4 15 3 10 -5 -3 -6 -2 -13 3 -16 5
-4 8 2 7 11 -3 20 -21 28 -31 14z"/>
<path d="M1078 1753 c7 -3 16 -2 19 1 4 3 -2 6 -13 5 -11 0 -14 -3 -6 -6z"/>
<path d="M1248 1743 c6 -2 18 -2 25 0 6 3 1 5 -13 5 -14 0 -19 -2 -12 -5z"/>
<path d="M380 1711 c0 -6 4 -13 10 -16 6 -3 7 1 4 9 -7 18 -14 21 -14 7z"/>
<path d="M245 1680 c-8 -13 6 -40 17 -34 6 4 5 10 -3 15 -20 12 -3 22 18 10
15 -7 20 -7 20 3 0 14 -44 19 -52 6z"/>
<path d="M836 1678 c5 -7 -9 -12 -27 -10 -3 1 -6 -5 -6 -12 0 -10 9 -8 34 6
38 23 41 27 14 25 -11 0 -17 -5 -15 -9z"/>
<path d="M2134 1674 c9 -6 14 -14 11 -17 -3 -4 -2 -5 2 -2 15 12 10 31 -9 31
-17 0 -17 -2 -4 -12z"/>
<path d="M362 1660 c0 -14 2 -19 5 -12 2 6 2 18 0 25 -3 6 -5 1 -5 -13z"/>
<path d="M950 1650 c-18 -12 -2 -12 25 0 13 6 15 9 5 9 -8 0 -22 -4 -30 -9z"/>
<path d="M166 1598 c3 -5 10 -6 15 -3 13 9 11 12 -6 12 -8 0 -12 -4 -9 -9z"/>
<path d="M2213 1599 c9 -5 17 -14 17 -19 0 -5 -8 -7 -17 -4 -17 5 -17 5 0 -6
9 -6 14 -16 11 -22 -4 -6 -3 -8 3 -5 9 6 10 25 4 60 0 4 -9 7 -18 7 -17 -1
-17 -1 0 -11z"/>
<path d="M250 1570 c-9 -6 -10 -10 -3 -10 6 0 15 5 18 10 8 12 4 12 -15 0z"/>
<path d="M208 1542 c-11 -13 -11 -14 2 -7 8 5 23 8 33 7 23 -4 22 4 -3 11 -11
3 -25 -2 -32 -11z"/>
<path d="M573 1513 c0 -8 6 -9 19 -2 10 5 18 11 18 12 0 2 -8 3 -18 3 -10 0
-19 -6 -19 -13z"/>
<path d="M83 1491 c0 -14 2 -20 4 -13 3 6 8 10 12 8 4 -3 7 3 7 13 0 10 -6 18
-12 18 -6 0 -11 -12 -11 -26z"/>
<path d="M182 1499 c-12 -19 -11 -19 8 -9 11 6 18 15 15 21 -8 12 -8 12 -23
-12z"/>
<path d="M242 1490 c0 -14 2 -19 5 -12 2 6 2 18 0 25 -3 6 -5 1 -5 -13z"/>
<path d="M560 1455 c0 -8 4 -15 10 -15 5 0 7 7 4 15 -4 8 -8 15 -10 15 -2 0
-4 -7 -4 -15z"/>
<path d="M150 1449 c0 -5 5 -7 10 -4 6 3 10 8 10 11 0 2 -4 4 -10 4 -5 0 -10
-5 -10 -11z"/>
<path d="M22 1395 c0 -16 2 -22 5 -12 2 9 2 23 0 30 -3 6 -5 -1 -5 -18z"/>
<path d="M141 1397 c-13 -21 -12 -21 5 -5 10 10 16 20 13 22 -3 3 -11 -5 -18
-17z"/>
<path d="M630 1410 c12 -7 8 -10 -14 -10 -37 0 -31 -5 14 -14 25 -4 31 -3 20
4 -13 9 -13 10 0 10 13 0 13 1 0 10 -8 5 -19 10 -25 10 -5 0 -3 -5 5 -10z"/>
<path d="M712 1401 c-11 -7 -10 -9 3 -15 10 -3 13 -11 9 -18 -5 -9 -2 -9 9 1
13 10 15 17 6 27 -13 16 -11 16 -27 5z"/>
<path d="M2205 1391 c-3 -5 -2 -12 3 -15 5 -3 9 1 9 9 0 17 -3 19 -12 6z"/>
<path d="M755 1360 c-16 -7 -17 -9 -3 -9 9 -1 20 4 23 9 7 11 7 11 -20 0z"/>
<path d="M2188 1347 c-3 -19 -2 -25 4 -19 6 6 8 18 6 28 -3 14 -5 12 -10 -9z"/>
<path d="M2221 1344 c0 -11 3 -14 6 -6 3 7 2 16 -1 19 -3 4 -6 -2 -5 -13z"/>
<path d="M810 1346 c0 -3 9 -10 20 -16 11 -6 20 -8 20 -6 0 3 -9 10 -20 16
-11 6 -20 8 -20 6z"/>
<path d="M860 1316 c0 -2 7 -9 15 -16 9 -7 15 -8 15 -2 0 5 -7 12 -15 16 -8 3
-15 4 -15 2z"/>
<path d="M1516 1312 c-3 -4 4 -9 15 -9 23 -2 25 3 4 10 -8 4 -16 3 -19 -1z"/>
<path d="M2010 1300 c0 -5 -8 -7 -17 -3 -12 3 -10 -1 5 -12 15 -11 21 -23 18
-34 -5 -12 -2 -11 9 3 20 26 19 40 -2 32 -15 -5 -15 -4 1 9 17 13 18 15 3 15
-9 0 -17 -4 -17 -10z"/>
<path d="M71 1274 c0 -11 3 -14 6 -6 3 7 2 16 -1 19 -3 4 -6 -2 -5 -13z"/>
<path d="M1305 1270 c-3 -6 1 -7 9 -4 18 7 21 14 7 14 -6 0 -13 -4 -16 -10z"/>
<path d="M1178 1263 c7 -3 16 -2 19 1 4 3 -2 6 -13 5 -11 0 -14 -3 -6 -6z"/>
<path d="M803 1245 c0 -7 6 -11 14 -8 7 3 13 6 13 8 0 2 -6 5 -13 8 -8 3 -14
-1 -14 -8z"/>
<path d="M887 1229 c7 -7 15 -10 18 -7 3 3 -2 9 -12 12 -14 6 -15 5 -6 -5z"/>
<path d="M1416 1227 c-16 -12 -16 -13 2 -13 10 0 19 6 19 13 0 7 -1 13 -2 13
-1 0 -9 -6 -19 -13z"/>
<path d="M1502 1224 c-7 -8 -8 -14 -3 -14 10 0 25 19 20 25 -2 1 -10 -3 -17
-11z"/>
<path d="M845 1220 c-3 -6 1 -7 9 -4 18 7 21 14 7 14 -6 0 -13 -4 -16 -10z"/>
<path d="M928 1213 c7 -3 16 -2 19 1 4 3 -2 6 -13 5 -11 0 -14 -3 -6 -6z"/>
<path d="M1134 1195 c-19 -15 -19 -15 0 -8 15 5 18 3 13 -10 -3 -9 -1 -19 5
-23 6 -4 8 -3 4 4 -3 6 2 15 11 21 17 10 17 10 -2 11 -17 0 -17 2 -5 10 8 5
10 10 4 10 -5 0 -19 -7 -30 -15z"/>
<path d="M1520 1200 c0 -5 5 -10 11 -10 5 0 7 5 4 10 -3 6 -8 10 -11 10 -2 0
-4 -4 -4 -10z"/>
<path d="M1635 1200 c3 -5 11 -10 16 -10 6 0 7 5 4 10 -3 6 -11 10 -16 10 -6
0 -7 -4 -4 -10z"/>
<path d="M1788 1203 c7 -3 16 -2 19 1 4 3 -2 6 -13 5 -11 0 -14 -3 -6 -6z"/>
<path d="M1855 1200 c6 -10 4 -12 -9 -7 -9 4 -15 3 -11 -2 3 -5 -1 -12 -7 -14
-7 -3 -8 -6 -2 -6 5 -1 18 5 29 12 14 11 15 16 5 22 -9 6 -11 4 -5 -5z"/>
<path d="M2050 1199 c0 -5 5 -7 10 -4 6 3 10 8 10 11 0 2 -4 4 -10 4 -5 0 -10
-5 -10 -11z"/>
<path d="M1193 1185 c0 -8 4 -12 9 -9 5 3 6 10 3 15 -9 13 -12 11 -12 -6z"/>
<path d="M1895 1190 c-3 -5 -1 -10 4 -10 6 0 11 5 11 10 0 6 -2 10 -4 10 -3 0
-8 -4 -11 -10z"/>
<path d="M1314 1174 c-10 -8 -14 -13 -7 -10 6 3 18 3 27 0 15 -6 15 -8 -1 -21
-16 -13 -16 -13 6 -2 22 11 23 13 8 24 -9 6 -14 15 -10 18 13 13 -4 7 -23 -9z"/>
<path d="M1610 1180 c-9 -6 -10 -10 -3 -10 6 0 15 5 18 10 8 12 4 12 -15 0z"/>
<path d="M1640 1169 c-12 -7 -9 -9 10 -10 53 -2 106 3 120 12 12 8 11 9 -5 5
-34 -8 -90 -10 -101 -4 -5 4 -16 3 -24 -3z"/>
<path d="M1980 1160 c-12 -8 -12 -10 2 -15 9 -4 25 -5 35 -2 14 4 13 5 -5 6
-13 0 -20 6 -17 11 8 12 4 12 -15 0z"/>
<path d="M1032 1121 c-11 -7 -11 -9 0 -14 9 -3 15 1 15 9 0 8 -1 14 -1 14 -1
0 -7 -4 -14 -9z"/>
<path d="M1178 1089 c-9 -10 -14 -20 -11 -23 7 -7 36 22 31 32 -2 4 -10 0 -20
-9z"/>
<path d="M1757 1099 c7 -7 15 -10 18 -7 3 3 -2 9 -12 12 -14 6 -15 5 -6 -5z"/>
<path d="M1125 1079 c-4 -6 -14 -8 -24 -5 -13 5 -12 3 2 -8 11 -8 26 -12 34
-9 11 4 12 8 3 13 -9 6 -9 9 1 13 9 3 10 6 2 6 -6 1 -15 -4 -18 -10z"/>
<path d="M1604 1079 c-3 -5 -2 -9 3 -8 24 4 43 -2 37 -12 -5 -8 -1 -8 13 0 14
7 24 7 33 -2 12 -10 12 -9 1 5 -7 10 -19 14 -28 11 -9 -4 -14 -2 -11 3 4 5 -5
10 -18 10 -13 1 -27 -2 -30 -7z"/>
<path d="M1929 1053 c-12 -16 -12 -17 2 -6 9 7 20 9 24 5 5 -4 5 -1 1 6 -9 16
-11 15 -27 -5z"/>
<path d="M1986 1001 c10 -10 21 -17 23 -15 6 6 -20 34 -32 34 -6 0 -2 -8 9
-19z"/>
<path d="M2001 884 c0 -11 3 -14 6 -6 3 7 2 16 -1 19 -3 4 -6 -2 -5 -13z"/>
<path d="M575 880 c3 -5 8 -10 11 -10 2 0 4 5 4 10 0 6 -5 10 -11 10 -5 0 -7
-4 -4 -10z"/>
<path d="M2115 877 c11 -5 23 -15 26 -20 4 -5 9 -5 13 2 4 6 2 11 -4 11 -6 0
-9 3 -7 8 3 4 -7 8 -21 9 -24 1 -25 0 -7 -10z"/>
<path d="M958 868 c5 -5 16 -8 23 -6 8 3 3 7 -10 11 -17 4 -21 3 -13 -5z"/>
<path d="M1078 873 c6 -2 18 -2 25 0 6 3 1 5 -13 5 -14 0 -19 -2 -12 -5z"/>
<path d="M610 858 c0 -4 6 -8 14 -8 8 0 17 4 20 8 2 4 -4 8 -15 8 -10 0 -19
-4 -19 -8z"/>
<path d="M1098 853 c7 -3 16 -2 19 1 4 3 -2 6 -13 5 -11 0 -14 -3 -6 -6z"/>
<path d="M4 700 c0 -63 1 -89 3 -57 2 31 2 83 0 115 -2 31 -3 5 -3 -58z"/>
<path d="M34 690 c0 -69 1 -97 3 -62 2 34 2 90 0 125 -2 34 -3 6 -3 -63z"/>
<path d="M1268 803 c7 -3 16 -2 19 1 4 3 -2 6 -13 5 -11 0 -14 -3 -6 -6z"/>
<path d="M1490 806 c0 -2 9 -6 20 -9 11 -3 18 -1 14 4 -5 9 -34 13 -34 5z"/>
<path d="M1607 803 c18 -2 50 -2 70 0 21 2 7 4 -32 4 -38 0 -55 -2 -38 -4z"/>
<path d="M1773 793 c9 -2 25 -2 35 0 9 3 1 5 -18 5 -19 0 -27 -2 -17 -5z"/>
<path d="M1690 780 c8 -5 22 -9 30 -9 10 0 8 3 -5 9 -27 12 -43 12 -25 0z"/>
<path d="M2125 686 c-19 -13 -18 -14 6 -13 17 1 25 7 22 15 -6 15 -5 15 -28
-2z"/>
<path d="M2050 670 c-8 -5 -10 -10 -5 -10 6 0 17 5 25 10 8 5 11 10 5 10 -5 0
-17 -5 -25 -10z"/>
<path d="M2040 648 c0 -3 9 -15 20 -28 11 -13 20 -19 20 -13 0 5 -9 18 -20 28
-11 10 -20 16 -20 13z"/>
<path d="M516 624 c-5 -14 -4 -15 9 -4 17 14 19 20 6 20 -5 0 -12 -7 -15 -16z"/>
<path d="M541 614 c-16 -37 -9 -39 11 -3 9 16 14 29 9 29 -4 0 -13 -12 -20
-26z"/>
<path d="M480 622 c0 -48 79 -113 136 -111 25 0 23 2 -14 14 -49 15 -76 36
-103 80 -11 17 -19 24 -19 17z"/>
<path d="M565 611 c-6 -11 13 -26 22 -17 4 3 0 6 -8 6 -11 0 -11 2 1 10 9 6
10 10 3 10 -6 0 -14 -4 -18 -9z"/>
<path d="M606 597 c3 -10 9 -15 12 -12 3 3 0 11 -7 18 -10 9 -11 8 -5 -6z"/>
<path d="M575 570 c4 -6 11 -8 16 -5 14 9 11 15 -7 15 -8 0 -12 -5 -9 -10z"/>
<path d="M45 562 c-8 -8 15 -43 25 -37 13 8 8 42 -7 42 -7 0 -15 -2 -18 -5z
m23 -27 c-3 -3 -9 2 -12 12 -6 14 -5 15 5 6 7 -7 10 -15 7 -18z"/>
<path d="M625 561 c6 -11 4 -13 -8 -8 -23 9 -21 0 2 -13 15 -7 19 -7 17 5 -1
8 -6 18 -11 22 -4 5 -5 2 0 -6z"/>
<path d="M484 546 c1 -8 5 -18 8 -22 4 -3 5 1 4 10 -1 8 -5 18 -8 22 -4 3 -5
-1 -4 -10z"/>
<path d="M1095 540 c-23 -6 -25 -8 -8 -9 12 0 27 -3 35 -4 7 -2 10 -2 5 0 -4
3 -5 9 -1 14 3 5 4 8 2 8 -2 -1 -16 -5 -33 -9z"/>
<path d="M505 510 c-4 -6 -12 -7 -18 -4 -7 4 -8 3 -4 -1 10 -12 87 -14 80 -3
-2 5 -14 6 -25 2 -14 -4 -18 -2 -14 5 4 6 3 11 -3 11 -5 0 -13 -5 -16 -10z"/>
<path d="M2026 511 c-4 -7 -5 -15 -2 -18 9 -9 19 4 14 18 -4 11 -6 11 -12 0z"/>
<path d="M1048 503 c7 -3 16 -2 19 1 4 3 -2 6 -13 5 -11 0 -14 -3 -6 -6z"/>
<path d="M1195 500 c-3 -6 1 -7 9 -4 18 7 21 14 7 14 -6 0 -13 -4 -16 -10z"/>
<path d="M222 481 c-11 -7 -11 -9 0 -14 9 -3 15 1 15 9 0 8 -1 14 -1 14 -1 0
-7 -4 -14 -9z"/>
<path d="M1731 481 c-7 -5 -9 -11 -5 -14 5 -3 15 1 22 9 14 16 5 18 -17 5z"/>
<path d="M180 460 c8 -5 20 -10 25 -10 6 0 3 5 -5 10 -8 5 -19 10 -25 10 -5 0
-3 -5 5 -10z"/>
<path d="M1823 425 c0 -8 4 -12 9 -9 5 3 6 10 3 15 -9 13 -12 11 -12 -6z"/>
<path d="M1790 420 c-9 -6 -10 -10 -3 -10 6 0 15 5 18 10 8 12 4 12 -15 0z"/>
<path d="M378 403 c7 -3 16 -2 19 1 4 3 -2 6 -13 5 -11 0 -14 -3 -6 -6z"/>
<path d="M1597 399 c7 -7 15 -10 18 -7 3 3 -2 9 -12 12 -14 6 -15 5 -6 -5z"/>
<path d="M85 389 c-4 -6 -5 -12 -2 -15 2 -3 7 2 10 11 7 17 1 20 -8 4z"/>
<path d="M1565 390 c3 -5 11 -10 16 -10 6 0 7 5 4 10 -3 6 -11 10 -16 10 -6 0
-7 -4 -4 -10z"/>
<path d="M1736 375 c-11 -8 -15 -15 -9 -15 6 0 16 7 23 15 16 19 11 19 -14 0z"/>
<path d="M468 373 c7 -3 16 -2 19 1 4 3 -2 6 -13 5 -11 0 -14 -3 -6 -6z"/>
<path d="M1530 370 c20 -13 33 -13 25 0 -3 6 -14 10 -23 10 -15 0 -15 -2 -2
-10z"/>
<path d="M518 363 c6 -2 18 -2 25 0 6 3 1 5 -13 5 -14 0 -19 -2 -12 -5z"/>
<path d="M1656 350 l-28 -18 25 1 c14 1 23 4 21 6 -2 2 1 10 7 18 15 17 11 16
-25 -7z"/>
<path d="M110 350 c0 -5 5 -10 10 -10 6 0 10 5 10 10 0 6 -4 10 -10 10 -5 0
-10 -4 -10 -10z"/>
<path d="M1742 351 c-11 -7 -11 -9 0 -14 9 -3 15 1 15 9 0 8 -1 14 -1 14 -1 0
-7 -4 -14 -9z"/>
<path d="M1470 296 c0 -2 37 -28 83 -57 100 -64 157 -110 157 -127 0 -7 11
-30 25 -50 14 -20 25 -42 25 -49 0 -7 5 -13 10 -13 6 0 8 11 6 25 -3 15 -1 23
5 20 5 -4 7 -10 4 -14 -5 -9 38 -31 59 -31 24 0 -148 161 -229 214 -133 87
-145 94 -145 82z"/>
<path d="M1550 276 c7 -7 13 -7 20 0 6 6 3 10 -10 10 -13 0 -16 -4 -10 -10z"/>
<path d="M305 270 c-7 -12 18 -18 40 -10 17 6 16 7 -8 12 -15 3 -30 2 -32 -2z"/>
<path d="M268 253 c7 -3 16 -2 19 1 4 3 -2 6 -13 5 -11 0 -14 -3 -6 -6z"/>
<path d="M1640 239 c-11 -8 -9 -9 10 -3 23 6 24 6 10 -11 -13 -16 -13 -18 0
-13 17 5 20 30 5 35 -5 1 -17 -2 -25 -8z"/>
<path d="M1520 199 c0 -11 4 -18 10 -14 5 3 7 12 3 20 -7 21 -13 19 -13 -6z"/>
<path d="M1355 200 c-3 -6 1 -7 9 -4 18 7 21 14 7 14 -6 0 -13 -4 -16 -10z"/>
<path d="M573 183 c9 -2 25 -2 35 0 9 3 1 5 -18 5 -19 0 -27 -2 -17 -5z"/>
<path d="M768 183 c6 -2 18 -2 25 0 6 3 1 5 -13 5 -14 0 -19 -2 -12 -5z"/>
<path d="M1373 173 c9 -2 23 -2 30 0 6 3 -1 5 -18 5 -16 0 -22 -2 -12 -5z"/>
<path d="M1738 163 c6 -2 9 -10 6 -15 -4 -7 -2 -8 5 -4 13 9 5 26 -12 25 -9 0
-8 -2 1 -6z"/>
<path d="M1610 150 c0 -5 5 -10 10 -10 6 0 10 5 10 10 0 6 -4 10 -10 10 -5 0
-10 -4 -10 -10z"/>
<path d="M1854 79 c-3 -6 -1 -16 5 -22 8 -8 11 -5 11 11 0 24 -5 28 -16 11z"/>
<path d="M1712 30 c0 -14 2 -19 5 -12 2 6 2 18 0 25 -3 6 -5 1 -5 -13z"/>
</g>
</svg>
